<svg width="29" height="24" viewBox="0 0 29 24" fill="none" xmlns="http://www.w3.org/2000/svg">
<path d="M28.5534 3.17147C27.5097 3.63397 26.3884 3.94647 25.2097 4.08772C26.4259 3.35996 27.3358 2.21455 27.7697 0.865218C26.627 1.54396 25.3763 2.02171 24.0722 2.27772C23.1951 1.3413 22.0335 0.720626 20.7676 0.512061C19.5016 0.303496 18.2023 0.518708 17.0712 1.12428C15.9401 1.72986 15.0406 2.69192 14.5123 3.8611C13.9841 5.03027 13.8566 6.34116 14.1496 7.59022C11.8343 7.47396 9.56918 6.87215 7.50143 5.82385C5.43367 4.77554 3.60945 3.30417 2.14715 1.50522C1.64715 2.36772 1.35965 3.36772 1.35965 4.43272C1.35909 5.39146 1.59519 6.33552 2.047 7.18113C2.4988 8.02675 3.15235 8.74777 3.94965 9.28022C3.02499 9.2508 2.12074 9.00095 1.31215 8.55147V8.62647C1.31206 9.97114 1.77719 11.2744 2.62863 12.3152C3.48007 13.356 4.66536 14.0701 5.9834 14.3365C5.12563 14.5686 4.22632 14.6028 3.3534 14.4365C3.72527 15.5935 4.44964 16.6052 5.42511 17.3301C6.40057 18.055 7.5783 18.4567 8.7934 18.479C6.73069 20.0982 4.18326 20.9766 1.5609 20.9727C1.09637 20.9728 0.632244 20.9457 0.170898 20.8915C2.83274 22.6029 5.93132 23.5112 9.0959 23.5077C19.8084 23.5077 25.6647 14.6352 25.6647 6.94022C25.6647 6.69022 25.6584 6.43772 25.6472 6.18772C26.7863 5.36394 27.7695 4.34384 28.5509 3.17522L28.5534 3.17147V3.17147Z" fill="white"/>
</svg>
