<svg width="26" height="18" viewBox="0 0 26 18" fill="none" xmlns="http://www.w3.org/2000/svg">
<path d="M24.9913 3.00376C24.8489 2.47551 24.5706 1.99376 24.1842 1.60647C23.7978 1.21917 23.3167 0.939835 22.7887 0.796259C20.8312 0.258759 13 0.250009 13 0.250009C13 0.250009 5.17 0.241259 3.21125 0.755009C2.68366 0.905192 2.20353 1.18848 1.81696 1.57768C1.43039 1.96687 1.15036 2.44891 1.00375 2.97751C0.4875 4.93501 0.4825 8.99501 0.4825 8.99501C0.4825 8.99501 0.4775 13.075 0.99 15.0125C1.2775 16.0838 2.12125 16.93 3.19375 17.2188C5.17125 17.7563 12.9813 17.765 12.9813 17.765C12.9813 17.765 20.8125 17.7738 22.77 17.2613C23.2981 17.1179 23.7797 16.8392 24.1671 16.4527C24.5544 16.0662 24.8342 15.5853 24.9788 15.0575C25.4963 13.1013 25.5 9.04251 25.5 9.04251C25.5 9.04251 25.525 4.96126 24.9913 3.00376V3.00376ZM10.495 12.7563L10.5013 5.25626L17.01 9.01251L10.495 12.7563V12.7563Z" fill="white"/>
</svg>
